<svg xmlns="http://www.w3.org/2000/svg" version="1.1" xmlns:xlink="http://www.w3.org/1999/xlink" xmlns:svgjs="http://svgjs.dev/svgjs" width="1000" height="450" preserveAspectRatio="none" viewBox="0 0 1000 450">
    <g mask="url(&quot;#SvgjsMask1378&quot;)" fill="#132E65">
        
        <circle r="15" cx="-33.23" cy="449.45" fill="url(&quot;#SvgjsRadialGradient1379&quot;)"></circle>
        <circle r="15" cx="0" cy="0" fill="url(&quot;#SvgjsRadialGradient1379&quot;)"></circle>
        <circle r="15" cx="870" cy="210" fill="url(&quot;#SvgjsRadialGradient1379&quot;)"></circle>

        <circle r="15" cx="538.35" cy="326.38" fill="url(&quot;#SvgjsRadialGradient1379&quot;)"></circle>
        <circle r="15" cx="816.56" cy="532.06" fill="url(&quot;#SvgjsRadialGradient1379&quot;)"></circle>
        
        <circle r="2" cx="100" cy="380" fill="#8b9ad9"></circle>
        <circle r="2" cx="175" cy="325" fill="#8b9ad9"></circle>
        <circle r="2" cx="300" cy="350" fill="#8b9ad9"></circle>
        <circle r="2" cx="575" cy="200" fill="#8b9ad9"></circle>
        <circle r="2" cx="625" cy="385" fill="#8b9ad9"></circle>
        <circle r="2" cx="895" cy="35" fill="#8b9ad9"></circle>


        <circle r="2" cx="86.1" cy="464.56" fill="#8b9ad9"></circle>
        <circle r="2" cx="37.21" cy="586.74" fill="#8b9ad9"></circle>
        <circle r="2" cx="161.19" cy="548.74" fill="#8b9ad9"></circle>
        <circle r="2" cx="312.29" cy="411.9" fill="#8b9ad9"></circle>
        <circle r="2" cx="328.24" cy="569.93" fill="#8b9ad9"></circle>
        <circle r="2" cx="428.31" cy="312.66" fill="#8b9ad9"></circle>
        <circle r="2" cx="453.21" cy="457.52" fill="#8b9ad9"></circle>
        <circle r="2" cx="407.96" cy="556.53" fill="#8b9ad9"></circle>
        <circle r="2" cx="574.78" cy="572.62" fill="#8b9ad9"></circle>
        <circle r="2" cx="688.28" cy="283.51" fill="#8b9ad9"></circle>
        <circle r="2" cx="701.87" cy="445.02" fill="#8b9ad9"></circle>
        <circle r="2" cx="669.37" cy="582.66" fill="#8b9ad9"></circle>
        <circle r="2" cx="798.2" cy="79.65" fill="#8b9ad9"></circle>
        <circle r="2" cx="784.64" cy="166.01" fill="#8b9ad9"></circle>
        <circle r="2" cx="812.09" cy="323.4" fill="#8b9ad9"></circle>
        <circle r="2" cx="800.31" cy="443.43" fill="#8b9ad9"></circle>
        <circle r="2" cx="934.23" cy="161.72" fill="#8b9ad9"></circle>
        <circle r="2" cx="939.43" cy="294.58" fill="#8b9ad9"></circle>
        <circle r="2" cx="933.93" cy="427.53" fill="#8b9ad9"></circle>
        <circle r="2" cx="918.53" cy="584.58" fill="#8b9ad9"></circle>
        <circle r="2" cx="1064.87" cy="156.85" fill="#8b9ad9"></circle>
        <circle r="2" cx="1033.37" cy="311.93" fill="#8b9ad9"></circle>
        <circle r="2" cx="1045.68" cy="412.07" fill="#8b9ad9"></circle>
        <circle r="2" cx="1077.83" cy="582.62" fill="#8b9ad9"></circle>
    </g>
    <defs>
        <mask id="SvgjsMask1378">
            <rect width="1000" height="450" fill="#ffffff"></rect>
        </mask>
        <radialGradient id="SvgjsRadialGradient1379">
            <stop stop-color="#ffffff" offset="0.1"></stop>
            <stop stop-color="#1735b3" offset="0.2"></stop>
            <stop stop-color="rgba(23, 53, 179, 0)" offset="1"></stop>
        </radialGradient>
    </defs>
</svg>