<svg id="visual" viewBox="0 0 900 100" width="900" height="100" xmlns="http://www.w3.org/2000/svg" xmlns:xlink="http://www.w3.org/1999/xlink" version="1.1"><rect x="0" y="0" width="900" height="100" fill="#050010" fill-opacity="0"></rect><path d="M0 54L21.5 55.2C43 56.3 86 58.7 128.8 63.2C171.7 67.7 214.3 74.3 257.2 75.5C300 76.7 343 72.3 385.8 67.3C428.7 62.3 471.3 56.7 514.2 58.5C557 60.3 600 69.7 642.8 69.3C685.7 69 728.3 59 771.2 54.2C814 49.3 857 49.7 878.5 49.8L900 50L900 0L878.5 0C857 0 814 0 771.2 0C728.3 0 685.7 0 642.8 0C600 0 557 0 514.2 0C471.3 0 428.7 0 385.8 0C343 0 300 0 257.2 0C214.3 0 171.7 0 128.8 0C86 0 43 0 21.5 0L0 0Z" fill="#050020" ></path><path d="M0 45L21.5 43.5C43 42 86 39 128.8 38C171.7 37 214.3 38 257.2 39.3C300 40.7 343 42.3 385.8 41.7C428.7 41 471.3 38 514.2 41.2C557 44.3 600 53.7 642.8 54.5C685.7 55.3 728.3 47.7 771.2 43.8C814 40 857 40 878.5 40L900 40L900 0L878.5 0C857 0 814 0 771.2 0C728.3 0 685.7 0 642.8 0C600 0 557 0 514.2 0C471.3 0 428.7 0 385.8 0C343 0 300 0 257.2 0C214.3 0 171.7 0 128.8 0C86 0 43 0 21.5 0L0 0Z" fill="#031867"></path><path d="M0 27L21.5 27C43 27 86 27 128.8 29.8C171.7 32.7 214.3 38.3 257.2 41.5C300 44.7 343 45.3 385.8 43.7C428.7 42 471.3 38 514.2 36.3C557 34.7 600 35.3 642.8 34.2C685.7 33 728.3 30 771.2 28.3C814 26.7 857 26.3 878.5 26.2L900 26L900 0L878.5 0C857 0 814 0 771.2 0C728.3 0 685.7 0 642.8 0C600 0 557 0 514.2 0C471.3 0 428.7 0 385.8 0C343 0 300 0 257.2 0C214.3 0 171.7 0 128.8 0C86 0 43 0 21.5 0L0 0Z" fill="#271fb3"></path><path d="M0 21L21.5 19.2C43 17.3 86 13.7 128.8 14.5C171.7 15.3 214.3 20.7 257.2 22C300 23.3 343 20.7 385.8 20.3C428.7 20 471.3 22 514.2 22.8C557 23.7 600 23.3 642.8 22.7C685.7 22 728.3 21 771.2 20.5C814 20 857 20 878.5 20L900 20L900 0L878.5 0C857 0 814 0 771.2 0C728.3 0 685.7 0 642.8 0C600 0 557 0 514.2 0C471.3 0 428.7 0 385.8 0C343 0 300 0 257.2 0C214.3 0 171.7 0 128.8 0C86 0 43 0 21.5 0L0 0Z" fill="#271FB3"></path></svg>