<?xml version="1.0" encoding="UTF-8"?>
<svg id="Layer_1" data-name="Layer 1" xmlns="http://www.w3.org/2000/svg" style="width: 500px; height: 800px;" viewBox="-200 -100 1000 1000" >
  <defs>
    <style>
      .cls-1 {
        fill: #262b6b;
        opacity: 1;
        <!-- filter="blur(5px); -->
        
        filter: drop-shadow(0px 0px 100px gold);
        

      }
      path {
        padding-top: 10px;
        padding-bottom: 10px;
      }
    </style>
  </defs>
  <path class="cls-1" d="m250.95,95.35c4.22-1.06,8.24-3.22,11.72-7.01,0,0,0,0,.01-.01,2.59-3.28,6.33-7.76,8.87-13.45,1.46-3.28,5.33-12.23,4.59-23.54-1.14-17.31-12.57-28.77-16.51-32.71-1.59-1.59-24.13-23.4-53.93-17.66-5.18,1-23.01,5.22-33.71,20.41-1.31,1.86-2.25,3.52-2.87,4.69-4.67-.3-8.39-.95-10.89-1.48-6.66-1.4-8.75-2.79-14.45-3.17-2.64-.18-4.62-.01-8.59.31-3.77.31-8.6.51-14.06,2.14-7.32,2.19-9.01,4.54-12.84,3.97-5.09-.75-6.93-5.59-11.01-10.13-8.8-9.79-22.09-11.49-30.27-12.5-4.73-.58-20.36-2.27-36.5,6.94-13.29,7.58-19.6,18.38-22.01,22.62C4.74,41.41-1.59,52.54.37,66.32c3.12,21.98,25.61,38.8,35.42,39.2.9.04,4.09.03,5.5,2.06,1.48,2.13.06,5.13-1.18,9.52,0,0,0,0,0,0-.02,0-1.57,8.91-2.14,13.11-.46,3.4-1.63,14.01,1.18,26.21,1.79,7.79,4.55,13.39,6.77,17.81,6.41,12.81,10.68,14.3,11.81,21.4.69,4.32.27,11.1-6.27,20.45-1.71,4.47-3.6,11.1-3.67,19.26-.04,4.66.71,8.31,2.14,15.59,1.69,8.58,2.58,12.93,5.12,16.01,2.47,3,3.81,3.52,4.44,6.22,1.05,4.48-2.27,7.08-1.16,11.08.87,3.13,3.8,4.83,5.5,5.81,17.62,10.2,135.32,3.27,139.57,3.98.02,0,.17.03.39.06,0,0,3,.44,6.03-.06,2.25-.37,8.52-1.61,10.39-5.5,1.96-4.08-1.93-7.09.31-11.92.99-2.15,2.01-2.06,4.79-5.15,3.28-3.65,4.87-7.11,6.36-10.37,2.75-6,3.62-11.02,4.21-14.56,1.24-7.43,2.65-15.93-.69-24.95-1.4-3.78-2.25-3.93-4.13-9.21-1.86-5.23-3.49-9.82-2.45-14.6.84-3.85,2.26-4.57,6.73-10.09,3.21-3.97,5.25-8.97,9.32-18.99,3.01-7.41,4.52-11.12,5.5-15.9,1.84-8.99,1.19-16.32.46-24.42-.11-1.18-.64-6.89-2.14-14.37-1.14-5.68-2.47-10.53-3.67-14.37" />
  
</svg>