<svg id="visual" viewBox="0 0 900 100" width="900" height="100" xmlns="http://www.w3.org/2000/svg" xmlns:xlink="http://www.w3.org/1999/xlink" version="1.1"><rect x="0" y="0" width="900" height="100" fill="#050020"></rect><path d="M0 44L21.5 42.8C43 41.7 86 39.3 128.8 34.8C171.7 30.3 214.3 23.7 257.2 22.5C300 21.3 343 25.7 385.8 30.7C428.7 35.7 471.3 41.3 514.2 39.5C557 37.7 600 28.3 642.8 28.7C685.7 29 728.3 39 771.2 43.8C814 48.7 857 48.3 878.5 48.2L900 48L900 101L878.5 101C857 101 814 101 771.2 101C728.3 101 685.7 101 642.8 101C600 101 557 101 514.2 101C471.3 101 428.7 101 385.8 101C343 101 300 101 257.2 101C214.3 101 171.7 101 128.8 101C86 101 43 101 21.5 101L0 101Z" fill="#050020"></path><path d="M0 53L21.5 54.5C43 56 86 59 128.8 60C171.7 61 214.3 60 257.2 58.7C300 57.3 343 55.7 385.8 56.3C428.7 57 471.3 60 514.2 56.8C557 53.7 600 44.3 642.8 43.5C685.7 42.7 728.3 50.3 771.2 54.2C814 58 857 58 878.5 58L900 58L900 101L878.5 101C857 101 814 101 771.2 101C728.3 101 685.7 101 642.8 101C600 101 557 101 514.2 101C471.3 101 428.7 101 385.8 101C343 101 300 101 257.2 101C214.3 101 171.7 101 128.8 101C86 101 43 101 21.5 101L0 101Z" fill="#031867"></path><path d="M0 71L21.5 71C43 71 86 71 128.8 68.2C171.7 65.3 214.3 59.7 257.2 56.5C300 53.3 343 52.7 385.8 54.3C428.7 56 471.3 60 514.2 61.7C557 63.3 600 62.7 642.8 63.8C685.7 65 728.3 68 771.2 69.7C814 71.3 857 71.7 878.5 71.8L900 72L900 101L878.5 101C857 101 814 101 771.2 101C728.3 101 685.7 101 642.8 101C600 101 557 101 514.2 101C471.3 101 428.7 101 385.8 101C343 101 300 101 257.2 101C214.3 101 171.7 101 128.8 101C86 101 43 101 21.5 101L0 101Z" fill="#271fb3"></path><path d="M0 77L21.5 78.8C43 80.7 86 84.3 128.8 83.5C171.7 82.7 214.3 77.3 257.2 76C300 74.7 343 77.3 385.8 77.7C428.7 78 471.3 76 514.2 75.2C557 74.3 600 74.7 642.8 75.3C685.7 76 728.3 77 771.2 77.5C814 78 857 78 878.5 78L900 78L900 101L878.5 101C857 101 814 101 771.2 101C728.3 101 685.7 101 642.8 101C600 101 557 101 514.2 101C471.3 101 428.7 101 385.8 101C343 101 300 101 257.2 101C214.3 101 171.7 101 128.8 101C86 101 43 101 21.5 101L0 101Z" fill="#6600ff"></path></svg>